<svg xmlns="http://www.w3.org/2000/svg" width="189" height="189" viewBox="0 0 189 189" fill="none">
    <path d="M94.5 57.0938C96.0664 57.0938 97.5687 57.716 98.6763 58.8236C99.784 59.9313 100.406 61.4336 100.406 63V102.375C100.406 103.941 99.784 105.444 98.6763 106.551C97.5687 107.659 96.0664 108.281 94.5 108.281C92.9336 108.281 91.4313 107.659 90.3237 106.551C89.216 105.444 88.5938 103.941 88.5938 102.375V63C88.5938 61.4336 89.216 59.9313 90.3237 58.8236C91.4313 57.716 92.9336 57.0938 94.5 57.0938ZM94.5 133.875C96.5886 133.875 98.5916 133.045 100.068 131.568C101.545 130.092 102.375 128.089 102.375 126C102.375 123.911 101.545 121.908 100.068 120.432C98.5916 118.955 96.5886 118.125 94.5 118.125C92.4114 118.125 90.4084 118.955 88.9315 120.432C87.4547 121.908 86.625 123.911 86.625 126C86.625 128.089 87.4547 130.092 88.9315 131.568C90.4084 133.045 92.4114 133.875 94.5 133.875Z" fill="#E63946"/>
    <path fill-rule="evenodd" clip-rule="evenodd" d="M65.3145 35.2485C73.7565 24.5306 82.7025 17.7188 94.4992 17.7188C106.296 17.7188 115.242 24.5306 123.684 35.2485C131.984 45.801 140.773 61.3935 152.034 81.3566L155.468 87.4361C164.768 103.934 172.123 116.967 175.982 127.418C179.919 138.112 180.864 147.814 174.895 156.374C169.107 164.682 159.444 168.076 147.254 169.683C135.119 171.281 118.786 171.281 97.8461 171.281H91.1524C70.2049 171.281 53.88 171.281 41.7446 169.683C29.5541 168.076 19.8915 164.682 14.1034 156.374C8.13412 147.814 9.07124 138.104 13.0166 127.418C16.8754 116.96 24.2306 103.934 33.531 87.4361L36.9645 81.3566C48.2179 61.3935 57.0142 45.7931 65.3145 35.2485ZM74.5991 42.5565C66.9289 52.2979 58.5656 67.095 46.9736 87.6488L44.1071 92.7281C34.4524 109.848 27.5932 122.055 24.1046 131.513C20.6554 140.852 21.1279 145.798 23.7896 149.625C26.6325 153.688 31.9639 156.476 43.2881 157.972C54.5651 159.453 70.1104 159.469 91.6406 159.469H97.3657C118.888 159.469 134.433 159.453 145.718 157.972C157.035 156.476 162.366 153.688 165.201 149.625C167.871 145.798 168.351 140.852 164.902 131.513C161.405 122.055 154.546 109.848 144.891 92.7281L142.025 87.6488C130.433 67.095 122.07 52.2979 114.399 42.5565C106.8 32.9175 100.902 29.5312 94.4992 29.5312C88.0969 29.5312 82.1985 32.9096 74.5991 42.5565Z" fill="#E63946"/>
</svg>