<svg
  xmlns="http://www.w3.org/2000/svg"
  width="35"
  height="35"
  viewBox="0 0 51 51"
  fill="none"
>
  <path
    d="M24.247 35.73H17.8787C17.2645 35.73 16.6755 35.486 16.2412 35.0517C15.807 34.6175 15.563 34.0284 15.563 33.4143V19.5201C15.563 18.9059 15.807 18.3169 16.2412 17.8826C16.6755 17.4483 17.2645 17.2043 17.8787 17.2043H34.0888C34.703 17.2043 35.292 17.4483 35.7263 17.8826C36.1606 18.3169 36.4045 18.9059 36.4045 19.5201V25.3093M22.5102 32.2564H23.668"
    stroke="#50ABE4"
    strokewidth="2.31572"
    strokelinecap="round"
    strokelinejoin="round"
  />
  <path
    d="M32.9304 38.0457L36.8093 34.2433C37.0471 34.0125 37.2363 33.7364 37.3657 33.4312C37.4951 33.1261 37.562 32.7981 37.5626 32.4666C37.5631 32.1352 37.4973 31.807 37.3689 31.5014C37.2405 31.1959 37.0522 30.9191 36.8151 30.6875C36.3312 30.2144 35.6817 29.9488 35.005 29.9476C34.3282 29.9463 33.6777 30.2093 33.1921 30.6806L32.9327 30.9353L32.6745 30.6806C32.1908 30.2078 31.5415 29.9425 30.865 29.9412C30.1886 29.9399 29.5383 30.2027 29.0527 30.6736C28.8148 30.9044 28.6255 31.1805 28.496 31.4856C28.3665 31.7907 28.2995 32.1186 28.2988 32.4501C28.2982 32.7815 28.3639 33.1097 28.4922 33.4153C28.6205 33.7209 28.8088 33.9977 29.0458 34.2294L32.9304 38.0457Z"
    stroke="#50ABE4"
    strokewidth="2.31572"
    strokelinecap="round"
    strokelinejoin="round"
  />
</svg>
