<svg
xmlns="http://www.w3.org/2000/svg"
width="30"
height="30"
viewBox="0 0 37 37"
fill="none"
>
<path
  d="M21.811 19.8484H21.152L20.9185 19.6232C21.4398 19.0176 21.8207 18.3043 22.0341 17.5343C22.2476 16.7643 22.2881 15.9566 22.153 15.169C21.7609 12.8502 19.8258 10.9985 17.4902 10.7149C16.6692 10.611 15.8352 10.6963 15.0521 10.9643C14.2691 11.2324 13.5577 11.6759 12.9725 12.2612C12.3873 12.8464 11.9437 13.5578 11.6757 14.3408C11.4077 15.1238 11.3223 15.9578 11.4262 16.7789C11.7098 19.1144 13.5615 21.0496 15.8804 21.4416C16.6679 21.5768 17.4756 21.5362 18.2456 21.3228C19.0157 21.1094 19.729 20.7284 20.3346 20.2071L20.5598 20.4407V21.0996L24.1048 24.6446C24.4468 24.9866 25.0056 24.9866 25.3476 24.6446C25.6896 24.3026 25.6896 23.7438 25.3476 23.4018L21.811 19.8484ZM16.8063 19.8484C14.7293 19.8484 13.0527 18.1719 13.0527 16.0949C13.0527 14.018 14.7293 12.3414 16.8063 12.3414C18.8832 12.3414 20.5598 14.018 20.5598 16.0949C20.5598 18.1719 18.8832 19.8484 16.8063 19.8484Z"
  fill="#1D3557"
/>
</svg>