<svg
  xmlns="http://www.w3.org/2000/svg"
  width="45"
  height="45"
  viewBox="0 0 51 51"
  fill="none"
>
  <path
    d="M31 34.5V32.5C31 31.4391 30.5786 30.4217 29.8284 29.6716C29.0783 28.9214 28.0609 28.5 27 28.5H19C17.9391 28.5 16.9217 28.9214 16.1716 29.6716C15.4214 30.4217 15 31.4391 15 32.5V34.5"
    stroke="#1D3557"
    strokewidth="2"
    strokelinecap="round"
    strokelinejoin="round"
  />
  <path
    d="M23 24.5C25.2091 24.5 27 22.7091 27 20.5C27 18.2909 25.2091 16.5 23 16.5C20.7909 16.5 19 18.2909 19 20.5C19 22.7091 20.7909 24.5 23 24.5Z"
    stroke="#1D3557"
    strokewidth="2"
    strokelinecap="round"
    strokelinejoin="round"
  />
  <path
    d="M37 34.4999V32.4999C36.9993 31.6136 36.7044 30.7527 36.1614 30.0522C35.6184 29.3517 34.8581 28.8515 34 28.6299"
    stroke="#1D3557"
    strokewidth="2"
    strokelinecap="round"
    strokelinejoin="round"
  />
  <path
    d="M30 16.6299C30.8604 16.8502 31.623 17.3506 32.1676 18.0522C32.7122 18.7538 33.0078 19.6167 33.0078 20.5049C33.0078 21.3931 32.7122 22.256 32.1676 22.9576C31.623 23.6592 30.8604 24.1596 30 24.3799"
    stroke="#1D3557"
    strokewidth="2"
    strokelinecap="round"
    strokelinejoin="round"
  />
</svg>
